<svg id="Camada_1" data-name="Camada 1" xmlns="http://www.w3.org/2000/svg" viewBox="0 0 595.28 425.2"><defs><style>.cls-1{fill:#4e4c94;}.cls-2{fill:#3ea2b0;}.cls-3{fill:#1a153e;}.cls-4{fill:#11213e;}.cls-5{fill:#b2c534;}.cls-6{fill:#81ae38;}.cls-7{fill:#21143f;}</style></defs><title>Logo Verzel_Final</title><polygon class="cls-1" points="154.25 235.6 60.04 290.25 154.25 122.03 154.25 235.6"/><polygon class="cls-2" points="154.25 235.6 248.45 290.25 154.25 122.03 154.25 235.6"/><polygon class="cls-3" points="248.45 290.25 154.25 235.6 60.04 290.25 248.45 290.25"/><path class="cls-4" d="M336,221.21l9.59-.06,7.66,23.65,7.6-23.65h9.23l-12.24,32.46h-9.54Z"/><path class="cls-4" d="M403.45,225.38c2.72,3,4.08,7.22,4.08,12.6,0,1,0,1.71-.06,2.24H384.18a8.26,8.26,0,0,0,8.38,6.51,11.48,11.48,0,0,0,4.41-.87,11.72,11.72,0,0,0,3.8-2.57l4.89,5a16.33,16.33,0,0,1-6,4.25,20.07,20.07,0,0,1-7.87,1.48,18.69,18.69,0,0,1-9-2.05,14.46,14.46,0,0,1-5.91-5.79,19,19,0,0,1,0-17.35,14.85,14.85,0,0,1,5.91-5.85,17.89,17.89,0,0,1,8.69-2.08Q399.39,220.85,403.45,225.38Zm-4.67,9.35a7.39,7.39,0,0,0-2-5.13,6.93,6.93,0,0,0-5.13-1.93,7.07,7.07,0,0,0-5,1.9,8.82,8.82,0,0,0-2.56,5.16Z"/><path class="cls-4" d="M431.84,222.42a12.82,12.82,0,0,1,6.33-1.63v8.75a12.73,12.73,0,0,0-1.45-.06,9.55,9.55,0,0,0-6.78,2.32,8,8,0,0,0-2.51,6.18v15.63h-9.29V221.15h9.29V227A11.87,11.87,0,0,1,431.84,222.42Z"/><path class="cls-4" d="M446.19,221.21h27.69v5.85l-16.71,19.25h17.26v7.36l-28.84-.06v-5.85l16.71-19.25-16.11-.06Z"/><path class="cls-4" d="M511,225.38c2.72,3,4.08,7.22,4.08,12.6,0,1,0,1.71-.06,2.24H491.68a8.26,8.26,0,0,0,8.39,6.51,11.47,11.47,0,0,0,4.4-.87,11.72,11.72,0,0,0,3.8-2.57l4.89,5a16.33,16.33,0,0,1-6,4.25,20.07,20.07,0,0,1-7.87,1.48,18.69,18.69,0,0,1-9-2.05,14.46,14.46,0,0,1-5.91-5.79,19,19,0,0,1,0-17.35,14.85,14.85,0,0,1,5.91-5.85,17.89,17.89,0,0,1,8.69-2.08Q506.89,220.85,511,225.38Zm-4.67,9.35a7.39,7.39,0,0,0-2-5.13,6.93,6.93,0,0,0-5.13-1.93,7.07,7.07,0,0,0-5,1.9,8.82,8.82,0,0,0-2.56,5.16Z"/><path class="cls-4" d="M525.94,208.85h9.3v44.76h-9.3Z"/><polygon class="cls-5" points="262.19 224.77 172 224.54 309.58 143.53 262.19 224.77"/><polygon class="cls-6" points="262.19 224.77 306.77 303.16 309.58 143.53 262.19 224.77"/><polygon class="cls-7" points="306.77 303.16 262.19 224.77 172 224.54 306.77 303.16"/></svg>
